<svg width="61" height="60" viewBox="0 0 61 60" fill="none" xmlns="http://www.w3.org/2000/svg">
<g filter="url(#filter0_d_2303_12306)">
<path d="M2.6665 29C2.6665 13.536 15.2025 1 30.6665 1C46.1305 1 58.6665 13.536 58.6665 29C58.6665 44.464 46.1305 57 30.6665 57C15.2025 57 2.6665 44.464 2.6665 29Z" fill="#0A77FF" shape-rendering="crispEdges"/>
<g filter="url(#filter1_d_2303_12306)">
<path fill-rule="evenodd" clip-rule="evenodd" d="M28 15.6666C27.2636 15.6666 26.6667 16.2636 26.6667 17C26.6667 17.7363 27.2636 18.3333 28 18.3333H29.3333V21C29.3333 21.0276 29.3342 21.055 29.3358 21.0822C24.0729 21.7372 20 26.2263 20 31.6666C20 37.5577 24.7756 42.3333 30.6667 42.3333C36.5577 42.3333 41.3333 37.5577 41.3333 31.6666C41.3333 29.1284 40.4468 26.7973 38.9665 24.966C39.2021 24.9119 39.4259 24.793 39.6095 24.6094L40.9428 23.2761C41.4635 22.7554 41.4635 21.9112 40.9428 21.3905C40.4221 20.8698 39.5779 20.8698 39.0572 21.3905L37.7239 22.7238C37.5403 22.9074 37.4214 23.1312 37.3673 23.3668C35.8612 22.1493 34.0169 21.3335 31.9975 21.0822C31.9992 21.055 32 21.0276 32 21V18.3333H33.3333C34.0697 18.3333 34.6667 17.7363 34.6667 17C34.6667 16.2636 34.0697 15.6666 33.3333 15.6666H28ZM32.9428 25.3905C33.4635 25.9112 33.4635 26.7554 32.9428 27.2761L30.2508 29.968L33.9279 31.8066C34.7422 32.2137 34.9194 33.2995 34.2748 33.9441L30.2761 37.9428C29.7554 38.4635 28.9112 38.4635 28.3905 37.9428C27.8698 37.4221 27.8698 36.5778 28.3905 36.0572L31.0824 33.3652L27.4053 31.5267C26.5903 31.1192 26.4145 30.0332 27.0584 29.3892L31.0571 25.3905C31.5778 24.8698 32.4221 24.8698 32.9428 25.3905Z" fill="white"/>
</g>
</g>
<defs>
<filter id="filter0_d_2303_12306" x="0.666504" y="0" width="60" height="60" filterUnits="userSpaceOnUse" color-interpolation-filters="sRGB">
<feFlood flood-opacity="0" result="BackgroundImageFix"/>
<feColorMatrix in="SourceAlpha" type="matrix" values="0 0 0 0 0 0 0 0 0 0 0 0 0 0 0 0 0 0 127 0" result="hardAlpha"/>
<feOffset dy="1"/>
<feGaussianBlur stdDeviation="1"/>
<feComposite in2="hardAlpha" operator="out"/>
<feColorMatrix type="matrix" values="0 0 0 0 0.0627451 0 0 0 0 0.0941176 0 0 0 0 0.156863 0 0 0 0.04 0"/>
<feBlend mode="normal" in2="BackgroundImageFix" result="effect1_dropShadow_2303_12306"/>
<feBlend mode="normal" in="SourceGraphic" in2="effect1_dropShadow_2303_12306" result="shape"/>
</filter>
<filter id="filter1_d_2303_12306" x="18" y="14.6666" width="25.3335" height="30.6666" filterUnits="userSpaceOnUse" color-interpolation-filters="sRGB">
<feFlood flood-opacity="0" result="BackgroundImageFix"/>
<feColorMatrix in="SourceAlpha" type="matrix" values="0 0 0 0 0 0 0 0 0 0 0 0 0 0 0 0 0 0 127 0" result="hardAlpha"/>
<feOffset dy="1"/>
<feGaussianBlur stdDeviation="1"/>
<feComposite in2="hardAlpha" operator="out"/>
<feColorMatrix type="matrix" values="0 0 0 0 0.0627451 0 0 0 0 0.0941176 0 0 0 0 0.156863 0 0 0 0.04 0"/>
<feBlend mode="normal" in2="BackgroundImageFix" result="effect1_dropShadow_2303_12306"/>
<feBlend mode="normal" in="SourceGraphic" in2="effect1_dropShadow_2303_12306" result="shape"/>
</filter>
</defs>
</svg>
