<svg width="112" height="28" viewBox="0 0 112 28" fill="none" xmlns="http://www.w3.org/2000/svg">
<path d="M43.4729 8.84783C40.9604 8.84783 39.1489 10.7921 39.1489 14.29C39.1489 17.8151 40.9331 19.7594 43.5366 19.7594C45.867 19.7594 47.3508 18.3603 47.3963 16.1434H43.8097V13.9448H50.1181V15.8073C50.1181 19.8139 47.3599 22.2943 43.5184 22.2943C39.2308 22.2943 36.3178 19.2416 36.3178 14.3173C36.3178 9.31119 39.3673 6.32208 43.4364 6.32208C46.8683 6.32208 49.5082 8.44807 49.9907 11.5008H47.1232C46.6225 9.84723 45.3481 8.84783 43.4729 8.84783ZM52.0116 10.4287H54.7516V22.0762H52.0116V10.4287ZM53.3862 8.57527C52.5123 8.57527 51.8022 7.92112 51.8022 7.09435C51.8022 6.26757 52.5214 5.59525 53.3953 5.59525C54.2692 5.59525 54.9792 6.27666 54.9792 7.09435C54.9792 7.91203 54.2692 8.57527 53.3953 8.57527H53.3862ZM62.9809 12.5456H60.6778V18.5783C60.6778 19.6867 61.2331 19.9321 61.9249 19.9321C61.9917 19.9321 62.0584 19.929 62.1252 19.923C62.1919 19.9169 62.2587 19.9078 62.3254 19.8957C62.3922 19.8836 62.459 19.8745 62.5257 19.8685C62.5925 19.8563 62.6592 19.8412 62.726 19.823L63.1902 21.9672C63.0567 22.0156 62.9232 22.055 62.7897 22.0853C62.6562 22.1156 62.5227 22.1428 62.3892 22.1671C62.2557 22.1913 62.1191 22.2095 61.9795 22.2216C61.846 22.2337 61.7095 22.2428 61.5699 22.2488C59.5126 22.3124 57.9195 21.2313 57.9286 19.0326V12.5547H56.281V10.4287H57.9286V7.6213H60.6778V10.4287H62.9809V12.5456ZM65.1019 6.53105H67.9148V19.714H74.7512V22.0762H65.1019V6.53105ZM76.1258 18.8055C76.1258 16.1798 78.2832 15.5074 80.5408 15.2621C82.5981 15.0441 83.4265 15.0077 83.4265 14.2173V14.1719C83.4265 13.0271 82.7256 12.373 81.4511 12.373C80.1039 12.373 79.3301 13.0544 79.0661 13.8539L76.499 13.4814C77.1089 11.3554 78.9842 10.2652 81.4329 10.2652C83.6541 10.2652 86.1666 11.1919 86.1666 14.2718V22.0762H83.5266V20.4772H83.4356C82.9349 21.4584 81.8426 22.3124 80.0128 22.3124C77.7917 22.3124 76.1167 21.1041 76.1258 18.8055ZM80.9141 20.2955C82.5708 20.2955 83.6177 19.1961 83.6086 17.8969V16.525C83.2536 16.8158 81.8153 16.9975 81.087 17.0974C79.8672 17.27 78.9478 17.7061 78.9478 18.7691C78.9478 19.7776 79.7671 20.2955 80.9141 20.2955ZM88.1875 6.53105H90.9275V12.3457H91.0458C91.4646 11.5008 92.3203 10.2652 94.3776 10.2652C97.0721 10.2652 99.184 12.3821 99.184 16.2615C99.184 20.1047 97.1267 22.2852 94.3867 22.2852C92.384 22.2852 91.4828 21.095 91.0458 20.241H90.8911V22.0762H88.1875V6.53105ZM93.622 20.032C95.4335 20.032 96.3894 18.4239 96.3894 16.2525C96.3894 14.081 95.4427 12.5183 93.622 12.5183C91.856 12.5183 90.882 13.9811 90.882 16.2525C90.882 18.5147 91.8651 20.032 93.622 20.032Z" fill="#171321"/>
<path d="M31.4659 13.4173C31.4932 13.9534 31.4294 14.4803 31.2747 14.9982C31.129 15.507 30.9015 15.9976 30.6011 16.4337C30.3007 16.8789 29.9274 17.2695 29.4996 17.5875L29.4905 17.5966L25.4032 20.6584L23.3823 22.1847L22.1625 23.1115C22.0896 23.166 22.0107 23.2053 21.9258 23.2296C21.8408 23.2599 21.7528 23.275 21.6618 23.275C21.5707 23.275 21.4828 23.2599 21.3978 23.2296C21.3128 23.2053 21.237 23.166 21.1702 23.1115L19.9413 22.1847L17.9295 20.6584L13.8695 17.6148L13.8513 17.5966L13.8331 17.5875C13.4143 17.2695 13.0411 16.8789 12.7407 16.4337C12.4312 15.9976 12.2036 15.507 12.058 14.9982C11.9123 14.4803 11.8486 13.9534 11.8668 13.4173C11.8941 12.8813 12.0034 12.3543 12.1945 11.8546L12.2218 11.791L14.889 4.8225C14.9012 4.78616 14.9164 4.75285 14.9346 4.72256C14.9528 4.69228 14.974 4.66199 14.9983 4.63171C15.0226 4.60142 15.0468 4.57417 15.0711 4.54994C15.1015 4.52571 15.1318 4.50451 15.1621 4.48634C15.2532 4.43183 15.3624 4.39549 15.4716 4.37732C15.5809 4.36823 15.6901 4.3864 15.7903 4.42274C15.8995 4.45908 15.9905 4.52268 16.0633 4.60445C16.1362 4.68622 16.1908 4.78616 16.2181 4.89518L18.0205 10.41H25.3121L27.1146 4.89518C27.151 4.78616 27.1965 4.68622 27.2784 4.60445C27.3512 4.52268 27.4423 4.45908 27.5424 4.42274C27.6516 4.3864 27.7609 4.36823 27.8701 4.37732C27.9794 4.39549 28.0795 4.43183 28.1796 4.48634C28.21 4.50451 28.2373 4.52571 28.2616 4.54994C28.2919 4.57417 28.3192 4.60142 28.3435 4.63171L28.3981 4.72256C28.4163 4.75285 28.4345 4.78616 28.4527 4.8225L31.1199 11.7819L31.1472 11.8546C31.3384 12.3543 31.4476 12.8813 31.4659 13.4173Z" fill="#E24329"/>
<path d="M31.4659 13.4173C31.4932 13.9534 31.4294 14.4804 31.2838 14.9982C31.129 15.507 30.9015 15.9976 30.6011 16.4337C30.3007 16.8789 29.9274 17.2695 29.4996 17.5875L29.4905 17.5966L25.4032 20.6584L21.6708 17.8329L27.5333 13.3992C27.7942 13.1993 28.0673 13.0176 28.3526 12.8541C28.6378 12.6845 28.9321 12.5331 29.2356 12.3998C29.539 12.2605 29.8485 12.1394 30.1641 12.0364C30.4736 11.9334 30.7922 11.8486 31.1199 11.7819L31.1472 11.8546C31.3384 12.3543 31.4476 12.8813 31.4659 13.4173Z" fill="#FC6D26"/>
<path d="M21.6708 17.8329L25.4032 20.6584L23.3823 22.1847L22.1625 23.1115C22.0896 23.166 22.0107 23.2053 21.9258 23.2296C21.8408 23.2599 21.7528 23.275 21.6618 23.275C21.5707 23.275 21.4828 23.2599 21.3978 23.2296C21.3128 23.2053 21.237 23.166 21.1702 23.1115L19.9413 22.1847L17.9295 20.6584L21.6708 17.8329Z" fill="#FCA326"/>
<path d="M21.6618 17.8331L17.9295 20.6584L13.8695 17.6148L13.8513 17.5966L13.8331 17.5875C13.4143 17.2695 13.0411 16.8789 12.7407 16.4337C12.4312 15.9976 12.2036 15.507 12.058 14.9982C11.9123 14.4803 11.8486 13.9534 11.8668 13.4173C11.8941 12.8813 12.0034 12.3543 12.1945 11.8546L12.2218 11.791C12.5435 11.8576 12.8621 11.9396 13.1777 12.0366C13.4932 12.1395 13.8027 12.2607 14.1062 12.4C14.4035 12.5332 14.6948 12.6847 14.9801 12.8542C15.2653 13.0238 15.5414 13.2056 15.8085 13.3994L21.6618 17.8331Z" fill="#FC6D26"/>
</svg>
