<svg width="112" height="28" viewBox="0 0 112 28" fill="none" xmlns="http://www.w3.org/2000/svg">
<path d="M90.6933 13.496L94.8499 24.5C93.6249 24.3251 92.4006 24.1059 91.154 23.9085L88.8125 17.8284L86.4066 23.4066C85.2257 23.2092 84.0658 23.1434 82.8848 22.9901L87.1066 13.3652L83.2775 3.5H86.8216L88.965 9.01182L91.2624 3.5H94.8493L90.6933 13.496ZM80.479 3.5H77.2632V22.575C78.3132 22.6408 79.4065 22.6842 80.479 22.8151V3.5ZM74.4849 22.356C71.554 22.1592 68.6223 21.9849 65.6257 21.9184V3.50008H68.9066V18.8125C70.7882 18.8559 72.6691 19.0086 74.4849 19.096V22.356ZM62.1249 10.9599V14.2408H57.6408V21.7H54.404V3.5H63.5915V6.78089H57.6415V10.96H62.1256L62.1249 10.9599ZM48.8908 6.78089V21.875C47.7967 21.875 46.6816 21.875 45.6092 21.9184V6.78089H42.2184V3.5H52.3025V6.78089H48.8908ZM38.6751 14.4151C37.2316 14.4151 35.525 14.4151 34.3 14.4816V19.3592C36.225 19.2276 38.15 19.075 40.0966 19.0092V22.1592L31.0191 22.8816V3.5H40.096V6.78089H34.2999V11.2C35.569 11.2 37.5157 11.1342 38.6749 11.1342V14.4158L38.6751 14.4151ZM20.496 12.5776V24.0401C19.3158 24.1717 18.265 24.325 17.1499 24.5V3.5H20.2783L24.5434 15.4225V3.5H27.825V23.1434C26.6658 23.3408 25.4842 23.4066 24.2375 23.5809L20.496 12.5776Z" fill="#E50914"/>
</svg>
