<svg width="112" height="28" viewBox="0 0 112 28" fill="none" xmlns="http://www.w3.org/2000/svg">
<path d="M31.2212 6.16729C30.3348 5.5564 29.178 5.25021 27.751 5.25021H22.2263C21.7889 5.25021 21.5472 5.46954 21.5013 5.90776L19.257 20.0299C19.2337 20.1686 19.2683 20.2955 19.3606 20.4108C19.4523 20.5263 19.5677 20.5838 19.7058 20.5838H22.33C22.7903 20.5838 23.0432 20.365 23.0897 19.9263L23.7111 16.1189C23.7338 15.9344 23.8147 15.7844 23.9529 15.6689C24.0909 15.5535 24.2636 15.4781 24.4708 15.4436C24.678 15.4093 24.8733 15.392 25.0578 15.392C25.2418 15.392 25.4603 15.4037 25.714 15.4267C25.9669 15.4496 26.1282 15.461 26.1973 15.461C28.1769 15.461 29.7306 14.9018 30.8588 13.7822C31.9864 12.6633 32.5508 11.1116 32.5508 9.12662C32.5508 7.76518 32.1072 6.77881 31.2212 6.16697V6.16729ZM28.3728 10.4077C28.2573 11.2155 27.9584 11.746 27.475 11.9999C26.9915 12.2542 26.301 12.3807 25.4033 12.3807L24.2638 12.4152L24.8509 8.71146C24.8968 8.45786 25.0463 8.3309 25.2997 8.3309H25.956C26.8763 8.3309 27.5443 8.46389 27.9586 8.72881C28.3728 8.99437 28.5109 9.55415 28.3728 10.4077Z" fill="#003087"/>
<path d="M89.5233 5.25H86.9685C86.7145 5.25 86.5651 5.37696 86.5195 5.63099L84.275 20.0304L84.2404 20.0996C84.2404 20.2155 84.2864 20.3246 84.3788 20.4285C84.4703 20.5322 84.586 20.5841 84.7239 20.5841H87.0032C87.4398 20.5841 87.6816 20.3653 87.7283 19.9266L89.9726 5.76948V5.73509C89.9725 5.41187 89.8224 5.25042 89.5233 5.25042V5.25Z" fill="#009CDE"/>
<path d="M58.6546 10.8235C58.6546 10.7084 58.6083 10.5986 58.5168 10.495C58.4245 10.3912 58.3208 10.339 58.206 10.339H55.5473C55.2936 10.339 55.0864 10.4549 54.9256 10.685L51.2656 16.085L49.7463 10.8929C49.6307 10.524 49.3778 10.339 48.9868 10.339H46.3967C46.2813 10.339 46.1778 10.391 46.0863 10.495C45.9939 10.5986 45.9481 10.7086 45.9481 10.8235C45.9481 10.87 46.1726 11.5505 46.6214 12.8658C47.0701 14.1815 47.5535 15.6007 48.0715 17.1238C48.5895 18.6466 48.8598 19.4547 48.8829 19.5462C46.9952 22.1311 46.0518 23.5156 46.0518 23.6999C46.0518 24.0002 46.2011 24.15 46.5006 24.15H49.1593C49.4124 24.15 49.6195 24.0349 49.781 23.804L58.586 11.0657C58.6317 11.02 58.6546 10.9396 58.6546 10.8234V10.8235Z" fill="#003087"/>
<path d="M83.4124 10.339H80.7882C80.4655 10.339 80.2706 10.7199 80.2015 11.4815C79.6022 10.5587 78.5095 10.0967 76.9208 10.0967C75.2635 10.0967 73.8534 10.7199 72.6911 11.966C71.5285 13.2121 70.9475 14.6778 70.9475 16.3622C70.9475 17.7239 71.3445 18.8084 72.1385 19.6157C72.9327 20.4239 73.9972 20.8272 75.3328 20.8272C76.0003 20.8272 76.6793 20.6885 77.3699 20.4119C78.0604 20.135 78.6009 19.766 78.993 19.3043C78.993 19.3274 78.9695 19.4309 78.924 19.6154C78.8774 19.8004 78.8547 19.9393 78.8547 20.0308C78.8547 20.4005 79.004 20.5845 79.3037 20.5845H81.6864C82.1233 20.5845 82.3768 20.3657 82.4456 19.927L83.8615 10.8927C83.8842 10.7541 83.8498 10.6275 83.7579 10.512C83.6653 10.3969 83.5505 10.339 83.4124 10.339ZM78.9065 17.1582C78.3194 17.7351 77.6115 18.0234 76.7829 18.0234C76.115 18.0234 75.5745 17.8391 75.16 17.4697C74.7454 17.1013 74.5382 16.5936 74.5382 15.9467C74.5382 15.0935 74.826 14.3718 75.4018 13.7834C75.9764 13.1949 76.6907 12.9008 77.5424 12.9008C78.1865 12.9008 78.7218 13.0912 79.148 13.4717C79.5735 13.8526 79.7871 14.3776 79.7871 15.047C79.7869 15.8776 79.4934 16.5816 78.9065 17.1582Z" fill="#009CDE"/>
<path d="M44.187 10.339H41.5627C41.2399 10.339 41.0447 10.7199 40.9755 11.4815C40.354 10.5587 39.2605 10.0967 37.6952 10.0967C36.0378 10.0967 34.6277 10.7199 33.4653 11.966C32.3027 13.2121 31.7217 14.6778 31.7217 16.3622C31.7217 17.7239 32.1188 18.8084 32.913 19.6157C33.7072 20.4239 34.7716 20.8272 36.1069 20.8272C36.7512 20.8272 37.4191 20.6885 38.1096 20.4119C38.8001 20.135 39.3526 19.766 39.767 19.3043C39.6746 19.5809 39.6288 19.8233 39.6288 20.0308C39.6288 20.4005 39.7784 20.5845 40.0777 20.5845H42.4602C42.8972 20.5845 43.1508 20.3657 43.2199 19.927L44.6355 10.8927C44.6582 10.7541 44.6238 10.6275 44.532 10.512C44.4398 10.3969 44.3249 10.339 44.187 10.339ZM39.6809 17.1753C39.0937 17.7414 38.3741 18.0234 37.5229 18.0234C36.8549 18.0234 36.3197 17.8391 35.9172 17.4697C35.5141 17.1013 35.3128 16.5936 35.3128 15.9467C35.3128 15.0935 35.6004 14.3718 36.1762 13.7834C36.7513 13.1949 37.4649 12.9007 38.317 12.9007C38.9612 12.9007 39.4964 13.0912 39.9227 13.4717C40.3482 13.8526 40.5614 14.3776 40.5614 15.047C40.5613 15.9008 40.2679 16.6106 39.6809 17.1753Z" fill="#003087"/>
<path d="M70.4467 6.16729C69.5604 5.5564 68.4039 5.25021 66.9766 5.25021H61.4863C61.0259 5.25021 60.7725 5.46954 60.7268 5.90776L58.4823 20.0299C58.459 20.1686 58.4936 20.2955 58.586 20.4108C58.6773 20.5263 58.7929 20.5838 58.9311 20.5838H61.7623C62.0385 20.5838 62.2226 20.434 62.3149 20.1339L62.9365 16.1189C62.9594 15.9344 63.0399 15.7844 63.1783 15.6689C63.3164 15.5535 63.4889 15.4781 63.6963 15.4436C63.9032 15.4093 64.0986 15.392 64.2832 15.392C64.4673 15.392 64.6857 15.4037 64.9391 15.4267C65.1922 15.4496 65.3539 15.461 65.4225 15.461C67.4025 15.461 68.9559 14.9018 70.0841 13.7822C71.2121 12.6633 71.776 11.1116 71.776 9.12662C71.7761 7.76518 71.3327 6.7787 70.4467 6.16697V6.16729ZM66.9076 11.8613C66.4011 12.2074 65.6413 12.3804 64.6287 12.3804L63.5236 12.4151L64.1106 8.71125C64.1562 8.45775 64.3059 8.33058 64.5594 8.33058H65.1807C65.6872 8.33058 66.09 8.35375 66.3897 8.39977C66.6884 8.44611 66.9766 8.59011 67.2528 8.83228C67.5292 9.07467 67.6672 9.42677 67.6672 9.88806C67.6672 10.8576 67.4136 11.5149 66.9076 11.8613Z" fill="#009CDE"/>
</svg>
