<svg width="112" height="28" viewBox="0 0 112 28" fill="none" xmlns="http://www.w3.org/2000/svg">
<path d="M40.8164 19.6364L41.8401 17.3343C42.9463 18.1336 44.4157 18.5493 45.8687 18.5493C46.9419 18.5493 47.6188 18.1496 47.6188 17.5421C47.6023 15.8475 41.1962 17.1744 41.1466 12.9219C41.1301 10.7636 43.1114 9.10097 45.9182 9.10097C47.5858 9.10097 49.2534 9.50064 50.4422 10.4119L49.4846 12.762C48.3949 12.0905 47.041 11.6109 45.7531 11.6109C44.8781 11.6109 44.3002 12.0106 44.3002 12.5222C44.3167 14.1848 50.7724 13.2736 50.8384 17.3343C50.8384 19.5405 48.9067 21.0912 46.1329 21.0912C44.1021 21.0912 42.2363 20.6276 40.8164 19.6364Z" fill="black"/>
<path d="M80.0954 16.503C79.5836 17.3663 78.6259 17.9577 77.5198 17.9577C75.8852 17.9577 74.5644 16.6788 74.5644 15.0961C74.5644 13.5134 75.8852 12.2344 77.5198 12.2344C78.6259 12.2344 79.5836 12.8259 80.0954 13.6893L82.9188 12.1704C81.8621 10.348 79.8312 9.10097 77.5198 9.10097C74.102 9.10097 71.3282 11.7868 71.3282 15.0961C71.3282 18.4054 74.102 21.0912 77.5198 21.0912C79.8478 21.0912 81.8621 19.8602 82.9188 18.0217L80.0954 16.503Z" fill="black"/>
<path d="M52.2583 4.12901H55.7916V20.8674H52.2583V4.12901Z" fill="black"/>
<path d="M84.3056 4.12901V20.8674H87.8389V15.8475L92.0327 20.8674H96.5566L91.2237 14.9043L96.1604 9.34077H91.8346L87.8389 13.961V4.12901H84.3056Z" fill="black"/>
<path d="M66.2925 16.5349C65.7806 17.3502 64.724 17.9577 63.5352 17.9577C61.9006 17.9577 60.5798 16.6788 60.5798 15.0961C60.5798 13.5134 61.9006 12.2344 63.5352 12.2344C64.724 12.2344 65.7806 12.8739 66.2925 13.7052V16.5349ZM66.2925 9.34077V10.6997C65.7146 9.75643 64.2782 9.10097 62.7757 9.10097C59.6717 9.10097 57.2281 11.7548 57.2281 15.0801C57.2281 18.4054 59.6717 21.0912 62.7757 21.0912C64.2782 21.0912 65.7146 20.4357 66.2925 19.4925V20.8514H69.8258V9.34077H66.2925Z" fill="black"/>
<path d="M19.3057 16.7755C19.3057 17.996 18.3193 18.9825 17.0987 18.9825C15.8782 18.9825 14.8917 17.996 14.8917 16.7755C14.8917 15.555 15.8782 14.5685 17.0987 14.5685H19.3057V16.7755Z" fill="#E01E5A"/>
<path d="M20.4092 16.7755C20.4092 15.555 21.3957 14.5685 22.6163 14.5685C23.8368 14.5685 24.8232 15.555 24.8232 16.7755V22.293C24.8232 23.5136 23.8368 24.5 22.6163 24.5C21.3957 24.5 20.4092 23.5136 20.4092 22.293V16.7755Z" fill="#E01E5A"/>
<path d="M22.6163 7.91402C21.3957 7.91402 20.4092 6.92755 20.4092 5.70701C20.4092 4.48647 21.3957 3.5 22.6163 3.5C23.8368 3.5 24.8232 4.48647 24.8232 5.70701V7.91402H22.6163Z" fill="#36C5F0"/>
<path d="M22.6163 9.03424C23.8368 9.03424 24.8232 10.0207 24.8232 11.2413C24.8232 12.4618 23.8368 13.4483 22.6163 13.4483H17.082C15.8615 13.4483 14.875 12.4618 14.875 11.2413C14.875 10.0207 15.8615 9.03424 17.082 9.03424H22.6163Z" fill="#36C5F0"/>
<path d="M31.461 11.2413C31.461 10.0207 32.4475 9.03424 33.668 9.03424C34.8885 9.03424 35.875 10.0207 35.875 11.2413C35.875 12.4618 34.8885 13.4483 33.668 13.4483H31.461V11.2413Z" fill="#2EB67D"/>
<path d="M30.3575 11.2413C30.3575 12.4618 29.371 13.4483 28.1505 13.4483C26.93 13.4483 25.9435 12.4618 25.9435 11.2413V5.70701C25.9435 4.48647 26.93 3.5 28.1505 3.5C29.371 3.5 30.3575 4.48647 30.3575 5.70701V11.2413Z" fill="#2EB67D"/>
<path d="M28.1505 20.086C29.371 20.086 30.3575 21.0725 30.3575 22.293C30.3575 23.5136 29.371 24.5 28.1505 24.5C26.93 24.5 25.9435 23.5136 25.9435 22.293V20.086H28.1505Z" fill="#ECB22E"/>
<path d="M28.1505 18.9825C26.93 18.9825 25.9435 17.996 25.9435 16.7755C25.9435 15.555 26.93 14.5685 28.1505 14.5685H33.6847C34.9053 14.5685 35.8917 15.555 35.8917 16.7755C35.8917 17.996 34.9053 18.9825 33.6847 18.9825H28.1505Z" fill="#ECB22E"/>
</svg>
